<svg width="22" height="22" viewBox="0 0 22 22" fill="none" xmlns="http://www.w3.org/2000/svg">
<path d="M2.28088 5.47411L7.2988 3.64941L12.3167 5.47411L10.0358 6.84263V8.21115C10.0358 8.21115 9.4273 7.75498 7.2988 7.75498C5.17029 7.75498 4.56175 8.21115 4.56175 8.21115V6.84263L2.28088 5.47411ZM2.28088 5.47411V9.1235" stroke="#707070" stroke-width="1.5" stroke-linecap="round" stroke-linejoin="round"/>
<path d="M10.0358 7.755V8.56608C10.0358 10.1335 8.81055 11.4044 7.29879 11.4044C5.78703 11.4044 4.56175 10.1335 4.56175 8.56608V7.755M13.9754 10.0632C13.9754 10.0632 14.4178 9.74118 15.9661 9.74118C17.5143 9.74118 17.9568 10.0623 17.9568 10.0623M13.9754 10.0632V9.12352L12.3167 8.21117L15.9661 6.84265L19.6155 8.21117L17.9568 9.12352V10.0623M13.9754 10.0632V10.326C13.9754 10.854 14.1851 11.3603 14.5584 11.7337C14.9318 12.107 15.4381 12.3167 15.9661 12.3167C16.4941 12.3167 17.0004 12.107 17.3738 11.7337C17.7471 11.3603 17.9568 10.854 17.9568 10.326V10.0623M14.5976 18.247H17.9778C18.6831 18.247 19.2432 17.904 19.7469 17.4241C20.7778 16.4424 19.0854 15.6578 18.4404 15.2737C17.8667 14.9351 17.2298 14.7177 16.5688 14.635C15.9078 14.5523 15.2369 14.606 14.5976 14.7928M4.00066 14.5301C3.14031 15.0109 0.884076 15.9917 2.25807 17.2188C2.92956 17.8182 3.67677 18.247 4.6174 18.247H9.98018C10.9199 18.247 11.668 17.8182 12.3395 17.2188C13.7135 15.9917 11.4573 15.0109 10.5969 14.5301C8.57882 13.4033 6.01877 13.4033 4.00066 14.5301Z" stroke="#707070" stroke-width="1.5" stroke-linecap="round" stroke-linejoin="round"/>
</svg>
