<svg width="24" height="24" viewBox="0 0 24 24" fill="none" xmlns="http://www.w3.org/2000/svg">
<path d="M9.5 9.5C11.433 9.5 13 7.933 13 6C13 4.067 11.433 2.5 9.5 2.5C7.567 2.5 6 4.067 6 6C6 7.933 7.567 9.5 9.5 9.5Z" stroke="black" stroke-width="1.5" stroke-linecap="round" stroke-linejoin="round"/>
<path d="M18.5 18.5L17 17.9V15.5M3 18.5V16.47C3 15.228 3.56 14.01 4.69 13.495C6.068 12.866 7.722 12.5 9.5 12.5C10.554 12.5 11.565 12.629 12.5 12.864M13 17.5C13 18.5609 13.4214 19.5783 14.1716 20.3284C14.9217 21.0786 15.9391 21.5 17 21.5C18.0609 21.5 19.0783 21.0786 19.8284 20.3284C20.5786 19.5783 21 18.5609 21 17.5C21 16.4391 20.5786 15.4217 19.8284 14.6716C19.0783 13.9214 18.0609 13.5 17 13.5C15.9391 13.5 14.9217 13.9214 14.1716 14.6716C13.4214 15.4217 13 16.4391 13 17.5Z" stroke="black" stroke-width="1.5" stroke-linecap="round" stroke-linejoin="round"/>
</svg>
