<svg width="24" height="24" viewBox="0 0 24 24" fill="none" xmlns="http://www.w3.org/2000/svg">
<g clip-path="url(#clip0_23_472)">
<path d="M19.562 6C19.6157 5.69354 19.6017 5.37903 19.5209 5.07857C19.4402 4.7781 19.2946 4.49895 19.0945 4.26071C18.8944 4.02248 18.6445 3.83093 18.3625 3.69951C18.0805 3.5681 17.7731 3.5 17.462 3.5H6.53801C6.22687 3.5 5.91951 3.5681 5.63749 3.69951C5.35548 3.83093 5.10564 4.02248 4.90552 4.26071C4.7054 4.49895 4.55985 4.7781 4.47909 5.07857C4.39832 5.37903 4.3843 5.69354 4.43801 6M17.5 3.5C17.528 3.24 17.543 3.111 17.543 3.004C17.5441 2.50969 17.3621 2.0325 17.0321 1.66446C16.7021 1.29643 16.2475 1.06364 15.756 1.011C15.65 1 15.52 1 15.26 1H8.74001C8.48001 1 8.34901 1 8.24301 1.011C7.75151 1.06364 7.29692 1.29643 6.96693 1.66446C6.63694 2.0325 6.45492 2.50969 6.45601 3.004C6.45601 3.111 6.47001 3.241 6.49901 3.5M14.581 12.616C15.14 12.962 15.14 13.858 14.581 14.204L11.21 16.294C10.667 16.631 10 16.194 10 15.5V11.32C10 10.627 10.667 10.19 11.21 10.526L14.581 12.616Z" stroke="black" stroke-width="1.5"/>
<path d="M2.38396 12.793C1.93696 9.629 1.71396 8.048 2.66196 7.023C3.60996 6 5.29796 6 8.67196 6H15.328C18.702 6 20.39 6 21.338 7.024C22.286 8.048 22.062 9.629 21.616 12.793L21.194 15.793C20.844 18.273 20.669 19.514 19.772 20.257C18.875 21 17.552 21 14.905 21H9.09496C6.44896 21 5.12496 21 4.22796 20.257C3.33096 19.514 3.15596 18.274 2.80596 15.793L2.38396 12.793Z" stroke="black" stroke-width="1.5"/>
</g>
<defs>
<clipPath id="clip0_23_472">
<rect width="24" height="24" fill="white"/>
</clipPath>
</defs>
</svg>
