<svg width="19" height="18" viewBox="0 0 19 18" fill="none" xmlns="http://www.w3.org/2000/svg">
<path d="M0.75 14.75V4.73037C0.75 3.46687 0.75 2.83512 0.962625 2.339C1.22808 1.72077 1.72077 1.22808 2.339 0.962625C2.83512 0.75 3.46075 0.75 4.73125 0.75H5.1635C5.42485 0.75003 5.68288 0.808598 5.91863 0.921402C6.15438 1.03421 6.36188 1.19838 6.52587 1.40187L8.11575 3.375M8.11575 3.375H13C14.225 3.375 14.8375 3.375 15.3056 3.613C15.7171 3.82291 16.0516 4.15769 16.2611 4.56937C16.5 5.0375 16.5 5.65 16.5 6.875V7.75M8.11575 3.375H5.125" stroke="#707070" stroke-width="1.5" stroke-linecap="round" stroke-linejoin="round"/>
<path d="M1.76323 11.6997L2.02398 11.0505C2.66623 9.45188 2.98736 8.653 3.65673 8.2015C4.32611 7.75 5.19148 7.75 6.92048 7.75H13.973C16.325 7.75 17.5019 7.75 18.0242 8.51912C18.5475 9.28825 18.11 10.375 17.2367 12.5503L16.976 13.1995C16.3337 14.7981 16.0126 15.597 15.3432 16.0485C14.6739 16.5 13.8085 16.5 12.0795 16.5H5.02698C2.67498 16.5 1.49811 16.5 0.975731 15.7309C0.452481 14.9626 0.889981 13.875 1.76323 11.6997Z" stroke="#707070" stroke-width="1.5" stroke-linejoin="round"/>
</svg>
