<svg width="21" height="21" viewBox="0 0 21 21" fill="none" xmlns="http://www.w3.org/2000/svg">
<path d="M7.48738 11.8125H4.09675C3.64752 11.815 3.21755 11.9953 2.9008 12.3138C2.58404 12.6324 2.40624 13.0634 2.40625 13.5126V16.9033C2.40602 17.1253 2.44959 17.3452 2.53446 17.5505C2.61934 17.7557 2.74385 17.9421 2.90087 18.0991C3.0579 18.2562 3.24435 18.3807 3.44955 18.4655C3.65476 18.5504 3.87469 18.594 4.09675 18.5938H7.48738C7.93667 18.5942 8.36783 18.4165 8.68635 18.0997C9.00487 17.7828 9.18477 17.3525 9.18663 16.9033V13.5126C9.18686 13.2894 9.14306 13.0683 9.05775 12.8621C8.97243 12.6558 8.84728 12.4684 8.68944 12.3106C8.5316 12.1527 8.34419 12.0276 8.13792 11.9423C7.93166 11.8569 7.71059 11.8131 7.48738 11.8134M7.48738 2.40625H4.09675C3.87469 2.40602 3.65476 2.44959 3.44955 2.53446C3.24435 2.61934 3.0579 2.74385 2.90087 2.90087C2.74385 3.0579 2.61934 3.24435 2.53446 3.44955C2.44959 3.65476 2.40602 3.87469 2.40625 4.09675V7.48738C2.40578 7.93667 2.58346 8.36783 2.90034 8.68635C3.21722 9.00487 3.64746 9.18477 4.09675 9.18663H7.48738C7.71059 9.18686 7.93166 9.14306 8.13792 9.05775C8.34419 8.97243 8.5316 8.84728 8.68944 8.68944C8.84728 8.5316 8.97243 8.34419 9.05775 8.13792C9.14306 7.93166 9.18686 7.71059 9.18663 7.48738V4.09675C9.18477 3.64746 9.00487 3.21722 8.68635 2.90034C8.36783 2.58346 7.93667 2.40578 7.48738 2.40625ZM16.9033 2.40625H13.5126C13.0633 2.40578 12.6322 2.58346 12.3136 2.90034C11.9951 3.21722 11.8152 3.64746 11.8134 4.09675V7.48738C11.8136 7.93797 11.9927 8.37005 12.3113 8.68867C12.63 9.00729 13.062 9.18639 13.5126 9.18663H16.9033C17.3525 9.18477 17.7828 9.00487 18.0997 8.68635C18.4165 8.36783 18.5942 7.93667 18.5938 7.48738V4.09675C18.594 3.87469 18.5504 3.65476 18.4655 3.44955C18.3807 3.24435 18.2562 3.0579 18.0991 2.90087C17.9421 2.74385 17.7557 2.61934 17.5505 2.53446C17.3452 2.44959 17.1253 2.40602 16.9033 2.40625ZM15.2031 11.8125C14.3039 11.8125 13.4415 12.1697 12.8056 12.8056C12.1697 13.4415 11.8125 14.3039 11.8125 15.2031C11.8125 16.1024 12.1697 16.9648 12.8056 17.6007C13.4415 18.2365 14.3039 18.5938 15.2031 18.5938C16.1024 18.5938 16.9648 18.2365 17.6007 17.6007C18.2365 16.9648 18.5938 16.1024 18.5938 15.2031C18.5938 14.3039 18.2365 13.4415 17.6007 12.8056C16.9648 12.1697 16.1024 11.8125 15.2031 11.8125Z" stroke="#707070" stroke-width="1.5" stroke-linecap="round" stroke-linejoin="round"/>
</svg>
