<svg width="19" height="19" viewBox="0 0 19 19" fill="none" xmlns="http://www.w3.org/2000/svg">
<path fill-rule="evenodd" clip-rule="evenodd" d="M5.54158 17.4167C4.49177 17.4167 3.48495 16.9996 2.74262 16.2573C2.00029 15.515 1.58325 14.5081 1.58325 13.4583V11.0833C1.58325 10.8734 1.66666 10.672 1.81513 10.5235C1.96359 10.3751 2.16496 10.2917 2.37492 10.2917C2.58488 10.2917 2.78625 10.3751 2.93471 10.5235C3.08318 10.672 3.16659 10.8734 3.16659 11.0833V13.4583C3.16659 14.0882 3.41681 14.6923 3.86221 15.1377C4.30761 15.5831 4.9117 15.8333 5.54158 15.8333H13.4583C14.0881 15.8333 14.6922 15.5831 15.1376 15.1377C15.583 14.6923 15.8333 14.0882 15.8333 13.4583V11.0833C15.8333 10.8734 15.9167 10.672 16.0651 10.5235C16.2136 10.3751 16.415 10.2917 16.6249 10.2917C16.8349 10.2917 17.0362 10.3751 17.1847 10.5235C17.3332 10.672 17.4166 10.8734 17.4166 11.0833V13.4583C17.4166 14.5081 16.9995 15.515 16.2572 16.2573C15.5149 16.9996 14.5081 17.4167 13.4583 17.4167H5.54158Z" fill="#3E3E3E"/>
<path fill-rule="evenodd" clip-rule="evenodd" d="M14.0244 8.62916C14.0971 8.70351 14.1545 8.79148 14.1933 8.88804C14.2321 8.9846 14.2514 9.08785 14.2502 9.19189C14.2491 9.29593 14.2274 9.39871 14.1864 9.49437C14.1455 9.59003 14.0861 9.67668 14.0117 9.74936L10.4492 13.2327C10.3013 13.3773 10.1027 13.4582 9.89581 13.4582C9.68898 13.4582 9.49035 13.3773 9.34244 13.2327L5.77994 9.74936C5.70401 9.67707 5.6432 9.59041 5.60103 9.49442C5.55886 9.39843 5.53618 9.29503 5.53431 9.1902C5.53243 9.08538 5.55139 8.98122 5.59009 8.88378C5.62879 8.78635 5.68646 8.69757 5.75976 8.6226C5.83305 8.54763 5.9205 8.48797 6.01703 8.44707C6.11357 8.40617 6.21727 8.38486 6.32211 8.38437C6.42695 8.38387 6.53085 8.4042 6.62776 8.44419C6.72468 8.48417 6.81269 8.54301 6.88669 8.61728L9.10415 10.7857V3.95832C9.10415 3.74836 9.18756 3.547 9.33602 3.39853C9.48449 3.25006 9.68585 3.16666 9.89581 3.16666C10.1058 3.16666 10.3071 3.25006 10.4556 3.39853C10.6041 3.547 10.6875 3.74836 10.6875 3.95832V10.7857L12.9041 8.61728C12.9785 8.5445 13.0665 8.48709 13.163 8.44833C13.2596 8.40958 13.3628 8.39023 13.4669 8.39141C13.5709 8.39258 13.6737 8.41426 13.7694 8.45519C13.865 8.49612 13.9517 8.5555 14.0244 8.62995V8.62916Z" fill="#3E3E3E"/>
</svg>
