<svg width="32" height="32" viewBox="0 0 32 32" fill="none" xmlns="http://www.w3.org/2000/svg">
<g clip-path="url(#clip0_148_204)">
<path d="M8.53356 16L14.9336 21.3333L23.4669 10.6666M16.0002 30.9333C14.0392 30.9333 12.0973 30.5471 10.2855 29.7966C8.47369 29.0461 6.82745 27.9461 5.44077 26.5594C4.05408 25.1728 2.9541 23.5265 2.20363 21.7147C1.45316 19.9029 1.06689 17.9611 1.06689 16C1.06689 14.0389 1.45316 12.097 2.20363 10.2852C2.9541 8.47345 4.05408 6.82721 5.44077 5.44052C6.82745 4.05383 8.47369 2.95385 10.2855 2.20338C12.0973 1.45291 14.0392 1.06665 16.0002 1.06665C19.9608 1.06665 23.7591 2.63998 26.5597 5.44052C29.3602 8.24107 30.9336 12.0394 30.9336 16C30.9336 19.9605 29.3602 23.7589 26.5597 26.5594C23.7591 29.36 19.9608 30.9333 16.0002 30.9333Z" stroke="#4CAF50" stroke-width="1.6"/>
</g>
<defs>
<clipPath id="clip0_148_204">
<rect width="32" height="32" fill="white"/>
</clipPath>
</defs>
</svg>
