<svg width="24" height="24" viewBox="0 0 24 24" fill="none" xmlns="http://www.w3.org/2000/svg">
<path d="M9.14288 10.691L9.34988 10.484C9.82041 10.0135 10.379 9.64024 10.9938 9.38559C11.6085 9.13094 12.2675 8.99988 12.9329 8.99988C13.5983 8.99988 14.2572 9.13094 14.872 9.38559C15.4868 9.64024 16.0454 10.0135 16.5159 10.484C16.9864 10.9545 17.3597 11.5131 17.6143 12.1279C17.8689 12.7427 18 13.4016 18 14.067C18 14.7324 17.8689 15.3913 17.6143 16.0061C17.3597 16.6209 16.9864 17.1795 16.5159 17.65L13.6499 20.516C13.1794 20.9865 12.6208 21.3598 12.006 21.6144C11.3912 21.8691 10.7323 22.0001 10.0669 22.0001C9.40146 22.0001 8.74255 21.8691 8.12778 21.6144C7.51301 21.3598 6.95441 20.9865 6.48388 20.516C6.01336 20.0455 5.64011 19.4869 5.38547 18.8721C5.13082 18.2573 4.99976 17.5984 4.99976 16.933C4.99976 16.2676 5.13082 15.6087 5.38547 14.9939C5.64011 14.3791 6.01336 13.8205 6.48388 13.35L6.94788 12.886" stroke="black" stroke-width="1.5" stroke-linecap="round"/>
<path d="M17.0519 11.114L17.5159 10.65C17.9864 10.1795 18.3597 9.62088 18.6143 9.00611C18.8689 8.39134 19 7.73243 19 7.06701C19 6.40158 18.8689 5.74267 18.6143 5.1279C18.3597 4.51313 17.9864 3.95453 17.5159 3.48401C17.0454 3.01348 16.4868 2.64024 15.872 2.38559C15.2572 2.13094 14.5983 1.99988 13.9329 1.99988C13.2675 1.99988 12.6085 2.13094 11.9938 2.38559C11.379 2.64024 10.8204 3.01348 10.3499 3.48401L7.48388 6.35001C7.01336 6.82053 6.64011 7.37913 6.38547 7.9939C6.13082 8.60867 5.99976 9.26758 5.99976 9.933C5.99976 10.5984 6.13082 11.2573 6.38547 11.8721C6.64011 12.4869 7.01336 13.0455 7.48388 13.516C7.95441 13.9865 8.51301 14.3598 9.12778 14.6144C9.74255 14.8691 10.4015 15.0001 11.0669 15.0001C11.7323 15.0001 12.3912 14.8691 13.006 14.6144C13.6208 14.3598 14.1794 13.9865 14.6499 13.516L14.8569 13.309" stroke="black" stroke-width="1.5" stroke-linecap="round"/>
</svg>
