<svg width="12" height="12" viewBox="0 0 12 12" fill="none" xmlns="http://www.w3.org/2000/svg">
<path fill-rule="evenodd" clip-rule="evenodd" d="M6 0C6.79565 0 7.55871 0.316071 8.12132 0.87868C8.68393 1.44129 9 2.20435 9 3V4.5375C9.42351 4.62395 9.80415 4.85407 10.0775 5.18891C10.3508 5.52375 10.5001 5.94276 10.5 6.375V10.125C10.5 10.6223 10.3025 11.0992 9.95083 11.4508C9.59919 11.8025 9.12228 12 8.625 12H3.375C2.87772 12 2.40081 11.8025 2.04917 11.4508C1.69754 11.0992 1.5 10.6223 1.5 10.125V6.375C1.49991 5.94276 1.64917 5.52375 1.92251 5.18891C2.19585 4.85407 2.57649 4.62395 3 4.5375V3C3 2.20435 3.31607 1.44129 3.87868 0.87868C4.44129 0.316071 5.20435 0 6 0ZM3.375 5.25C3.07663 5.25 2.79048 5.36853 2.5795 5.5795C2.36853 5.79048 2.25 6.07663 2.25 6.375V10.125C2.25 10.4234 2.36853 10.7095 2.5795 10.9205C2.79048 11.1315 3.07663 11.25 3.375 11.25H8.625C8.92337 11.25 9.20952 11.1315 9.4205 10.9205C9.63147 10.7095 9.75 10.4234 9.75 10.125V6.375C9.75 6.07663 9.63147 5.79048 9.4205 5.5795C9.20952 5.36853 8.92337 5.25 8.625 5.25H3.375ZM6 0.75C5.40326 0.75 4.83097 0.987053 4.40901 1.40901C3.98705 1.83097 3.75 2.40326 3.75 3V4.5H8.25V3C8.25 2.40326 8.01295 1.83097 7.59099 1.40901C7.16903 0.987053 6.59674 0.75 6 0.75Z" fill="black"/>
</svg>
