<svg width="24" height="24" viewBox="0 0 24 24" fill="none" xmlns="http://www.w3.org/2000/svg">
<path d="M14.25 7.125C14.4571 7.125 14.625 6.95711 14.625 6.75C14.625 6.54289 14.4571 6.375 14.25 6.375C14.0429 6.375 13.875 6.54289 13.875 6.75C13.875 6.95711 14.0429 7.125 14.25 7.125Z" fill="black" stroke="black" stroke-width="0.625"/>
<path d="M6.75 6C6.55109 6 6.36032 6.07902 6.21967 6.21967C6.07902 6.36032 6 6.55109 6 6.75C6 6.94891 6.07902 7.13968 6.21967 7.28033C6.36032 7.42098 6.55109 7.5 6.75 7.5V6ZM9.75 7.5C9.94891 7.5 10.1397 7.42098 10.2803 7.28033C10.421 7.13968 10.5 6.94891 10.5 6.75C10.5 6.55109 10.421 6.36032 10.2803 6.21967C10.1397 6.07902 9.94891 6 9.75 6V7.5ZM6.75 10.5C6.55109 10.5 6.36032 10.579 6.21967 10.7197C6.07902 10.8603 6 11.0511 6 11.25C6 11.4489 6.07902 11.6397 6.21967 11.7803C6.36032 11.921 6.55109 12 6.75 12V10.5ZM14.25 12C14.4489 12 14.6397 11.921 14.7803 11.7803C14.921 11.6397 15 11.4489 15 11.25C15 11.0511 14.921 10.8603 14.7803 10.7197C14.6397 10.579 14.4489 10.5 14.25 10.5V12ZM6.75 13.5C6.55109 13.5 6.36032 13.579 6.21967 13.7197C6.07902 13.8603 6 14.0511 6 14.25C6 14.4489 6.07902 14.6397 6.21967 14.7803C6.36032 14.921 6.55109 15 6.75 15V13.5ZM12.75 15C12.9489 15 13.1397 14.921 13.2803 14.7803C13.421 14.6397 13.5 14.4489 13.5 14.25C13.5 14.0511 13.421 13.8603 13.2803 13.7197C13.1397 13.579 12.9489 13.5 12.75 13.5V15ZM19.5 7.5V20.25H21V7.5H19.5ZM18.75 21H8.25V22.5H18.75V21ZM8.25 21C8.05109 21 7.86032 20.921 7.71967 20.7803C7.57902 20.6397 7.5 20.4489 7.5 20.25H6C6 20.8467 6.23705 21.419 6.65901 21.841C7.08097 22.2629 7.65326 22.5 8.25 22.5V21ZM19.5 20.25C19.5 20.4489 19.421 20.6397 19.2803 20.7803C19.1397 20.921 18.9489 21 18.75 21V22.5C19.3467 22.5 19.919 22.2629 20.341 21.841C20.7629 21.419 21 20.8467 21 20.25H19.5ZM18.75 6.75C18.9489 6.75 19.1397 6.82902 19.2803 6.96967C19.421 7.11032 19.5 7.30109 19.5 7.5H21C21 6.90326 20.7629 6.33097 20.341 5.90901C19.919 5.48705 19.3467 5.25 18.75 5.25V6.75ZM7.5 20.25V18.75H6V20.25H7.5ZM18.75 5.25H17.25V6.75H18.75V5.25ZM6.75 7.5H9.75V6H6.75V7.5ZM6.75 12H14.25V10.5H6.75V12ZM6.75 15H12.75V13.5H6.75V15ZM5.25 3.75H15.75V2.25H5.25V3.75ZM16.5 4.5V17.25H18V4.5H16.5ZM15.75 18H5.25V19.5H15.75V18ZM4.5 17.25V4.5H3V17.25H4.5ZM5.25 18C5.05109 18 4.86032 17.921 4.71967 17.7803C4.57902 17.6397 4.5 17.4489 4.5 17.25H3C3 17.8467 3.23705 18.419 3.65901 18.841C4.08097 19.2629 4.65326 19.5 5.25 19.5V18ZM16.5 17.25C16.5 17.4489 16.421 17.6397 16.2803 17.7803C16.1397 17.921 15.9489 18 15.75 18V19.5C16.3467 19.5 16.919 19.2629 17.341 18.841C17.7629 18.419 18 17.8467 18 17.25H16.5ZM15.75 3.75C15.9489 3.75 16.1397 3.82902 16.2803 3.96967C16.421 4.11032 16.5 4.30109 16.5 4.5H18C18 3.90326 17.7629 3.33097 17.341 2.90901C16.919 2.48705 16.3467 2.25 15.75 2.25V3.75ZM5.25 2.25C4.65326 2.25 4.08097 2.48705 3.65901 2.90901C3.23705 3.33097 3 3.90326 3 4.5H4.5C4.5 4.30109 4.57902 4.11032 4.71967 3.96967C4.86032 3.82902 5.05109 3.75 5.25 3.75V2.25Z" fill="black"/>
</svg>
