<svg width="34" height="34" viewBox="0 0 34 34" fill="none" xmlns="http://www.w3.org/2000/svg">
<g clip-path="url(#clip0_100_378)">
<path d="M22.6509 20.3977L22.6274 11.3137L13.5434 11.2902C13.4488 11.2773 13.3525 11.285 13.2611 11.3127C13.1696 11.3403 13.0852 11.3872 13.0135 11.4503C12.9418 11.5134 12.8845 11.5912 12.8455 11.6784C12.8065 11.7655 12.7866 11.8601 12.7873 11.9556C12.788 12.0511 12.8092 12.1453 12.8495 12.2319C12.8897 12.3185 12.9481 12.3954 13.0207 12.4575C13.0933 12.5196 13.1784 12.5653 13.2702 12.5916C13.362 12.618 13.4584 12.6243 13.5528 12.6101L20.3599 12.6384L11.342 21.6563C11.2169 21.7814 11.1467 21.9509 11.1467 22.1278C11.1467 22.3046 11.2169 22.4741 11.342 22.5992C11.467 22.7242 11.6365 22.7944 11.8134 22.7944C11.9902 22.7944 12.1597 22.7242 12.2848 22.5992L21.3027 13.5812L21.331 20.3883C21.3316 20.5652 21.4025 20.7346 21.5281 20.8592C21.6536 20.9839 21.8235 21.0536 22.0004 21.053C22.1773 21.0523 22.3467 20.9815 22.4714 20.8559C22.596 20.7304 22.6657 20.5605 22.6651 20.3836L22.6509 20.3977Z" fill="black"/>
</g>
<defs>
<clipPath id="clip0_100_378">
<rect width="24" height="24" fill="white" transform="translate(16.9706) rotate(45)"/>
</clipPath>
</defs>
</svg>
