<svg width="24" height="24" viewBox="0 0 24 24" fill="none" xmlns="http://www.w3.org/2000/svg">
<path d="M5.78582 2.57143C4.93334 2.57143 4.11577 2.91007 3.51298 3.51287C2.91018 4.11566 2.57153 4.93323 2.57153 5.78571V18.2143C2.57153 19.0668 2.91018 19.8843 3.51298 20.4871C4.11577 21.0899 4.93334 21.4286 5.78582 21.4286H18.2144C19.0669 21.4286 19.8844 21.0899 20.4872 20.4871C21.09 19.8843 21.4287 19.0668 21.4287 18.2143V5.78571C21.4287 4.93323 21.09 4.11566 20.4872 3.51287C19.8844 2.91007 19.0669 2.57143 18.2144 2.57143H5.78582ZM3.85725 5.78571C3.85725 5.27422 4.06044 4.78368 4.42211 4.42201C4.78379 4.06033 5.27433 3.85714 5.78582 3.85714H18.2144C18.7259 3.85714 19.2164 4.06033 19.5781 4.42201C19.9398 4.78368 20.143 5.27422 20.143 5.78571V18.2143C20.143 18.7258 19.9398 19.2163 19.5781 19.578C19.2164 19.9397 18.7259 20.1429 18.2144 20.1429H5.78582C5.27433 20.1429 4.78379 19.9397 4.42211 19.578C4.06044 19.2163 3.85725 18.7258 3.85725 18.2143V5.78571ZM5.14296 7.71428C5.14296 7.25963 5.32357 6.82359 5.64506 6.5021C5.96656 6.18061 6.40259 6 6.85725 6H17.143C17.5976 6 18.0337 6.18061 18.3551 6.5021C18.6766 6.82359 18.8572 7.25963 18.8572 7.71428V9.42857C18.8572 9.88323 18.6766 10.3193 18.3551 10.6408C18.0337 10.9622 17.5976 11.1429 17.143 11.1429H6.85725C6.40259 11.1429 5.96656 10.9622 5.64506 10.6408C5.32357 10.3193 5.14296 9.88323 5.14296 9.42857V7.71428ZM6.85725 7.28571C6.74358 7.28571 6.63457 7.33086 6.5542 7.41124C6.47383 7.49161 6.42868 7.60062 6.42868 7.71428V9.42857C6.42868 9.54223 6.47383 9.65124 6.5542 9.73162C6.63457 9.81199 6.74358 9.85714 6.85725 9.85714H17.143C17.2566 9.85714 17.3656 9.81199 17.446 9.73162C17.5264 9.65124 17.5715 9.54223 17.5715 9.42857V7.71428C17.5715 7.60062 17.5264 7.49161 17.446 7.41124C17.3656 7.33086 17.2566 7.28571 17.143 7.28571H6.85725ZM5.14296 13.5C5.14296 13.3295 5.21069 13.166 5.33125 13.0454C5.45181 12.9249 5.61532 12.8571 5.78582 12.8571H10.5001C10.6706 12.8571 10.8341 12.9249 10.9547 13.0454C11.0752 13.166 11.143 13.3295 11.143 13.5C11.143 13.6705 11.0752 13.834 10.9547 13.9546C10.8341 14.0751 10.6706 14.1429 10.5001 14.1429H5.78582C5.61532 14.1429 5.45181 14.0751 5.33125 13.9546C5.21069 13.834 5.14296 13.6705 5.14296 13.5ZM5.78582 16.0714C5.61532 16.0714 5.45181 16.1392 5.33125 16.2597C5.21069 16.3803 5.14296 16.5438 5.14296 16.7143C5.14296 16.8848 5.21069 17.0483 5.33125 17.1689C5.45181 17.2894 5.61532 17.3571 5.78582 17.3571H10.5001C10.6706 17.3571 10.8341 17.2894 10.9547 17.1689C11.0752 17.0483 11.143 16.8848 11.143 16.7143C11.143 16.5438 11.0752 16.3803 10.9547 16.2597C10.8341 16.1392 10.6706 16.0714 10.5001 16.0714H5.78582ZM13.2858 13.9286C13.2858 13.1006 13.9578 12.4286 14.7858 12.4286H17.3572C18.1852 12.4286 18.8572 13.1006 18.8572 13.9286V16.5C18.8572 16.8978 18.6992 17.2794 18.4179 17.5607C18.1366 17.842 17.7551 18 17.3572 18H14.7858C14.388 18 14.0065 17.842 13.7252 17.5607C13.4439 17.2794 13.2858 16.8978 13.2858 16.5V13.9286ZM14.7858 13.7143C14.729 13.7143 14.6745 13.7369 14.6343 13.777C14.5941 13.8172 14.5715 13.8717 14.5715 13.9286V16.5C14.5715 16.6183 14.6675 16.7143 14.7858 16.7143H17.3572C17.4141 16.7143 17.4686 16.6917 17.5088 16.6515C17.549 16.6113 17.5715 16.5568 17.5715 16.5V13.9286C17.5715 13.8717 17.549 13.8172 17.5088 13.777C17.4686 13.7369 17.4141 13.7143 17.3572 13.7143H14.7858Z" fill="black"/>
</svg>
