<svg width="21" height="21" viewBox="0 0 21 21" fill="none" xmlns="http://www.w3.org/2000/svg">
<path d="M10.4999 7.125C10.0567 7.125 9.61786 7.2123 9.20839 7.38191C8.79892 7.55152 8.42686 7.80012 8.11346 8.11351C7.80006 8.42691 7.55146 8.79897 7.38185 9.20844C7.21224 9.61792 7.12495 10.0568 7.12495 10.5C7.12495 10.9432 7.21224 11.3821 7.38185 11.7916C7.55146 12.201 7.80006 12.5731 8.11346 12.8865C8.42686 13.1999 8.79892 13.4485 9.20839 13.6181C9.61786 13.7877 10.0567 13.875 10.4999 13.875C11.3951 13.875 12.2535 13.5194 12.8864 12.8865C13.5194 12.2535 13.8749 11.3951 13.8749 10.5C13.8749 9.60489 13.5194 8.74645 12.8864 8.11351C12.2535 7.48058 11.3951 7.125 10.4999 7.125ZM8.24995 10.5C8.24995 10.2045 8.30814 9.91194 8.42122 9.63896C8.53429 9.36598 8.70002 9.11794 8.90896 8.90901C9.11789 8.70008 9.36593 8.53434 9.63891 8.42127C9.91189 8.3082 10.2045 8.25 10.4999 8.25C10.7954 8.25 11.088 8.3082 11.361 8.42127C11.634 8.53434 11.882 8.70008 12.0909 8.90901C12.2999 9.11794 12.4656 9.36598 12.5787 9.63896C12.6917 9.91194 12.7499 10.2045 12.7499 10.5C12.7499 11.0967 12.5129 11.669 12.0909 12.091C11.669 12.5129 11.0967 12.75 10.4999 12.75C9.90321 12.75 9.33091 12.5129 8.90896 12.091C8.487 11.669 8.24995 11.0967 8.24995 10.5ZM16.2824 16.7963L14.9864 16.227C14.802 16.1469 14.6014 16.111 14.4006 16.1222C14.1997 16.1333 14.0043 16.1913 13.8299 16.2915C13.4797 16.494 13.2562 16.8518 13.2119 17.2545L13.0559 18.6645C13.0405 18.8063 12.9816 18.9398 12.8872 19.0468C12.7927 19.1537 12.6675 19.2287 12.5287 19.2615C11.1943 19.5787 9.8041 19.5787 8.4697 19.2615C8.33102 19.2286 8.20596 19.1535 8.11168 19.0466C8.01741 18.9397 7.95855 18.8062 7.9432 18.6645L7.7872 17.2568C7.76485 17.0586 7.69635 16.8685 7.5872 16.7016C7.47805 16.5348 7.33128 16.3958 7.1587 16.296C6.9862 16.1967 6.79284 16.1391 6.5941 16.1279C6.39536 16.1167 6.19676 16.1522 6.0142 16.2315L4.7182 16.8007C4.58718 16.8583 4.44152 16.8737 4.30137 16.8448C4.16122 16.8159 4.03352 16.7442 3.93595 16.6395C3.0039 15.6393 2.30987 14.4415 1.9057 13.1355C1.86283 12.9982 1.86393 12.851 1.90885 12.7144C1.95376 12.5777 2.04024 12.4586 2.1562 12.3735L3.30145 11.5275C3.46267 11.409 3.59376 11.2543 3.68412 11.0758C3.77447 10.8973 3.82155 10.7001 3.82155 10.5C3.82155 10.2999 3.77447 10.1027 3.68412 9.92418C3.59376 9.74568 3.46267 9.59095 3.30145 9.4725L2.1562 8.62875C2.04009 8.54363 1.95351 8.42433 1.90859 8.28756C1.86367 8.15078 1.86266 8.00338 1.9057 7.866C2.30987 6.56076 3.00451 5.36406 3.93745 4.36575C4.03511 4.2612 4.16285 4.1896 4.30299 4.16084C4.44314 4.13209 4.58876 4.14761 4.7197 4.20525L6.0097 4.773C6.19325 4.852 6.39274 4.88693 6.59221 4.87501C6.79168 4.86308 6.9856 4.80463 7.15843 4.70433C7.33126 4.60403 7.47821 4.46466 7.58752 4.29738C7.69684 4.1301 7.76548 3.93956 7.78795 3.741L7.94545 2.3325C7.96098 2.1891 8.02106 2.05417 8.11725 1.94668C8.21344 1.83919 8.34089 1.76455 8.4817 1.73325C9.1417 1.58625 9.8177 1.5085 10.5097 1.5C11.1862 1.5075 11.8597 1.58625 12.5197 1.73325C12.6606 1.76459 12.7881 1.83935 12.8843 1.94698C12.9805 2.05462 13.0406 2.18971 13.0559 2.33325L13.2127 3.74175C13.2463 4.05417 13.3942 4.34317 13.6278 4.55329C13.8615 4.7634 14.1645 4.87984 14.4787 4.88025C14.6534 4.88025 14.8267 4.8435 14.9887 4.77225L16.2787 4.2045C16.4096 4.14686 16.5553 4.13134 16.6954 4.16009C16.8355 4.18885 16.9633 4.26045 17.0609 4.365C17.9936 5.36338 18.688 6.56008 19.0919 7.86525C19.1349 8.00245 19.1339 8.14964 19.0891 8.28625C19.0443 8.42287 18.958 8.54209 18.8422 8.62725L17.6984 9.4725C17.3722 9.7125 17.1749 10.0942 17.1749 10.5C17.1749 10.905 17.3722 11.2867 17.6992 11.5275L18.8437 12.372C19.0807 12.5475 19.1812 12.8535 19.0942 13.1348C18.6895 14.4394 17.9955 15.6359 17.0639 16.635C16.9664 16.7397 16.8387 16.8114 16.6985 16.8403C16.5584 16.8692 16.4135 16.8538 16.2824 16.7963ZM12.1964 16.6478C12.3753 16.0872 12.7562 15.6132 13.2652 15.318C13.5926 15.1294 13.9596 15.0202 14.3368 14.9992C14.7141 14.9782 15.0909 15.0461 15.4372 15.1973L16.4452 15.6398C17.0922 14.8897 17.5933 14.0254 17.9227 13.0912L17.0309 12.4335C16.727 12.2109 16.4798 11.9191 16.3093 11.5832C16.1387 11.2473 16.0496 10.876 16.0492 10.4992C16.0492 9.729 16.4219 9.01425 17.0294 8.56725L17.0309 8.5665L17.9212 7.90875C17.5914 6.97483 17.0901 6.11075 16.4429 5.361L15.4432 5.8005L15.4417 5.80125C15.1372 5.93625 14.8094 6.00525 14.4772 6.00525C13.8863 6.00469 13.3163 5.78614 12.8765 5.39145C12.4367 4.99676 12.158 4.45368 12.0937 3.86625V3.86475L11.9714 2.76975C11.489 2.67998 10.9997 2.63155 10.5089 2.625C10.0039 2.632 9.5102 2.68025 9.0277 2.76975L8.90545 3.8655C8.86337 4.23933 8.73419 4.59807 8.52829 4.91291C8.32239 5.22774 8.04552 5.4899 7.71991 5.6783C7.39431 5.86671 7.02905 5.97611 6.65348 5.99773C6.27792 6.01934 5.90252 5.95256 5.55745 5.80275L4.55545 5.36175C3.9083 6.1115 3.40694 6.97558 3.0772 7.9095L3.9697 8.56725C4.2728 8.79026 4.51921 9.08143 4.68905 9.41723C4.85888 9.75303 4.94736 10.1241 4.94736 10.5004C4.94736 10.8767 4.85888 11.2477 4.68905 11.5835C4.51921 11.9193 4.2728 12.2105 3.9697 12.4335L3.0772 13.092C3.40621 14.0275 3.90733 14.8931 4.5547 15.6442L5.56345 15.2017C5.90754 15.0515 6.28209 14.9841 6.65697 15.005C7.03186 15.0258 7.39662 15.1343 7.72195 15.3218C8.04701 15.5095 8.32349 15.771 8.52917 16.085C8.73484 16.3991 8.86398 16.757 8.9062 17.13V17.1337L9.0277 18.2318C10.0004 18.423 11.0002 18.423 11.9729 18.2318L12.0944 17.1315C12.1124 16.9655 12.1469 16.8043 12.1979 16.6478" fill="#707070"/>
</svg>
