<svg width="11" height="11" viewBox="0 0 11 11" fill="none" xmlns="http://www.w3.org/2000/svg">
<g clip-path="url(#clip0_83_322)">
<path d="M5.17864 9.70994C2.67995 9.70994 0.647339 7.67733 0.647339 5.17864C0.647339 2.67995 2.67995 0.647339 5.17864 0.647339C7.67733 0.647339 9.70994 2.67995 9.70994 5.17864C9.70994 7.67733 7.67733 9.70994 5.17864 9.70994ZM5.17864 1.29467C3.03598 1.29467 1.29467 3.03598 1.29467 5.17864C1.29467 7.3213 3.03598 9.06261 5.17864 9.06261C7.3213 9.06261 9.06261 7.3213 9.06261 5.17864C9.06261 3.03598 7.3213 1.29467 5.17864 1.29467Z" fill="black"/>
<path d="M6.47324 6.79699C6.41498 6.79699 6.35672 6.78404 6.30494 6.75168L4.68661 5.78068C4.6389 5.75164 4.59952 5.71074 4.57229 5.66196C4.54507 5.61318 4.53093 5.55819 4.53126 5.50233V2.91302C4.53126 2.73177 4.67367 2.58936 4.85492 2.58936C5.03617 2.58936 5.17858 2.73177 5.17858 2.91302V5.32108L6.64155 6.19497C6.7018 6.23191 6.74838 6.28748 6.77421 6.35326C6.80004 6.41905 6.80372 6.49146 6.78469 6.55953C6.76566 6.62759 6.72496 6.6876 6.66876 6.73045C6.61256 6.7733 6.54392 6.79666 6.47324 6.79699Z" fill="black"/>
</g>
<defs>
<clipPath id="clip0_83_322">
<rect width="10.3573" height="10.3573" fill="white"/>
</clipPath>
</defs>
</svg>
