<svg width="22" height="22" viewBox="0 0 22 22" fill="none" xmlns="http://www.w3.org/2000/svg">
<g clip-path="url(#clip0_65_78)">
<path d="M19.3874 8.66731H18.0189M3.87753 8.66731H5.24605M11.6325 0.912354V2.28087M6.14882 3.1841L7.1159 4.1521M17.1157 3.1841L16.1477 4.1521M12.2305 5.66888C8.20753 9.1805 3.87616 13.5972 2.33748 15.1892C1.97711 15.5619 1.86215 16.1052 2.06971 16.5796C2.18284 16.8374 2.3165 17.1188 2.45472 17.3583C2.59294 17.5978 2.76994 17.8542 2.9369 18.0809C3.24344 18.4983 3.77169 18.6698 4.2744 18.5444C6.42252 18.0075 12.4134 16.4651 17.466 14.7372" stroke="#707070" stroke-width="1.5" stroke-linecap="round" stroke-linejoin="round"/>
<path d="M9.85894 7.84294C9.85894 7.84294 10.8128 8.79726 12.4299 11.5982C14.0471 14.3991 14.3965 15.7024 14.3965 15.7024M10.3534 17.0412L10.6244 18.053C10.6956 18.3187 10.7137 18.5958 10.6778 18.8685C10.6419 19.1412 10.5526 19.4041 10.415 19.6423C10.2775 19.8805 10.0944 20.0893 9.87617 20.2567C9.65794 20.4241 9.40888 20.5469 9.1432 20.6181C8.87752 20.6893 8.60042 20.7074 8.32773 20.6715C8.05504 20.6356 7.79209 20.5463 7.5539 20.4087C7.31571 20.2712 7.10695 20.0881 6.93952 19.8699C6.7721 19.6516 6.6493 19.4026 6.57813 19.1369L6.35278 18.2939M11.8816 5.06348C11.8816 5.06348 12.9751 6.25911 15.1506 10.0276C17.326 13.796 17.8151 15.3406 17.8151 15.3406" stroke="#707070" stroke-width="1.5" stroke-linecap="round" stroke-linejoin="round"/>
</g>
<defs>
<clipPath id="clip0_65_78">
<rect width="21.8963" height="21.8963" fill="white"/>
</clipPath>
</defs>
</svg>
